<?xml version="1.0" encoding="UTF-8"?>
<svg version="1.1" xmlns="http://www.w3.org/2000/svg" width="512" height="512">
<path d="M0 0 C1.25528704 -0.00226556 2.51057408 -0.00453111 3.80390012 -0.00686532 C7.25372833 -0.01292684 10.70353211 -0.01285647 14.15336442 -0.01167095 C17.88768774 -0.0114655 21.62200351 -0.0169994 25.35632324 -0.02172852 C32.65997188 -0.0300047 39.96361245 -0.03278199 47.26726539 -0.03334089 C53.20980829 -0.03381753 59.15234854 -0.03587959 65.09489059 -0.03904152 C81.97677097 -0.04784005 98.85864502 -0.05246219 115.7405277 -0.05171105 C117.10324887 -0.05165111 117.10324887 -0.05165111 118.49349976 -0.05158997 C119.4031015 -0.05154909 120.31270324 -0.0515082 121.24986868 -0.05146609 C135.98063692 -0.05105991 150.71137957 -0.06062442 165.44214042 -0.07472833 C180.60059539 -0.08912616 195.75903792 -0.09599664 210.9174999 -0.09513456 C219.41450989 -0.09480375 227.91149306 -0.09749963 236.40849686 -0.10831261 C243.64455255 -0.11746259 250.88056924 -0.11955623 258.11662824 -0.11280318 C261.80090366 -0.10956044 265.48510446 -0.10939892 269.16937256 -0.11815643 C306.87780497 -0.20201912 338.15875717 4.63245476 365.98519897 32.13371277 C381.98519897 48.58181821 381.98519897 48.58181821 381.98519897 55.13371277 C382.64519897 55.13371277 383.30519897 55.13371277 383.98519897 55.13371277 C384.82505981 57.06839219 385.65687924 59.00656406 386.48519897 60.94621277 C386.94926147 62.02515808 387.41332397 63.10410339 387.89144897 64.21574402 C388.98519897 67.13371277 388.98519897 67.13371277 388.98519897 70.13371277 C389.64519897 70.13371277 390.30519897 70.13371277 390.98519897 70.13371277 C391.83400642 73.33345963 392.63110878 76.54437684 393.42269897 79.75871277 C393.76784546 81.05615417 393.76784546 81.05615417 394.1199646 82.37980652 C395.6747981 88.82447871 396.27223114 95.13848991 396.55058289 101.73703003 C396.59181977 102.6900745 396.63305665 103.64311897 396.67554313 104.62504357 C397.15433105 116.87237889 397.13505062 129.12327332 397.13058269 141.37813461 C397.13037501 144.94798076 397.13593132 148.51781932 397.14064026 152.08766174 C397.14886586 159.04736819 397.15169128 166.00706616 397.15225264 172.96677706 C397.15273114 178.628769 397.15480237 184.29075819 397.15795326 189.95274925 C397.16673331 206.06122599 397.17137615 222.16969612 397.17062279 238.27817527 C397.17056285 239.57456306 397.17056285 239.57456306 397.17050171 240.8971405 C397.17044039 242.19513707 397.17044039 242.19513707 397.17037783 243.5193558 C397.16997085 257.56147929 397.17956048 271.60357604 397.19364008 285.64569179 C397.20803555 300.11854108 397.2149087 314.59137734 397.2140463 329.06423396 C397.2137157 337.16814763 397.2164031 345.27203316 397.22722435 353.37594032 C397.23637069 360.26849541 397.23847044 367.16100955 397.23171493 374.0535681 C397.22847208 377.56159232 397.22831139 381.06953817 397.23706818 384.5775547 C397.30680428 418.79438921 397.30680428 418.79438921 392.98519897 433.13371277 C392.59345744 434.7756418 392.21562065 436.42104072 391.86019897 438.07121277 C391.69262085 438.84336121 391.52504272 439.61550964 391.35238647 440.41105652 C391.2312146 440.97953308 391.11004272 441.54800964 390.98519897 442.13371277 C390.32519897 442.13371277 389.66519897 442.13371277 388.98519897 442.13371277 C388.87176147 443.00769714 388.75832397 443.88168152 388.64144897 444.78215027 C385.04462444 463.15164701 366.97103184 481.77705638 352.04379272 492.18449402 C344.43647653 497.13371277 344.43647653 497.13371277 341.98519897 497.13371277 C341.98519897 497.79371277 341.98519897 498.45371277 341.98519897 499.13371277 C340.23967424 499.97637988 338.48857818 500.80751314 336.73519897 501.63371277 C335.76066772 502.09777527 334.78613647 502.56183777 333.78207397 503.03996277 C330.98519897 504.13371277 330.98519897 504.13371277 326.98519897 504.13371277 C326.98519897 504.79371277 326.98519897 505.45371277 326.98519897 506.13371277 C323.88872977 506.97744368 320.78217423 507.77688517 317.67269897 508.57121277 C316.40909546 508.91635925 316.40909546 508.91635925 315.1199646 509.26847839 C309.4125983 510.70050848 303.78375602 511.405196 297.91552734 511.69909668 C297.10075066 511.74033356 296.28597398 511.78157044 295.4465071 511.82405692 C283.5554943 512.35841103 271.65114142 512.28335506 259.75080204 512.27909648 C256.12977797 512.2788895 252.50876147 512.28443886 248.88774109 512.28915405 C241.82134314 512.29739525 234.75495353 512.30020583 227.68855117 512.30076643 C221.93972165 512.30124434 216.19089485 512.30331269 210.44206619 512.30646706 C194.09451491 512.31525272 177.74697015 512.31988925 161.39941649 512.31913658 C160.52151377 512.31909663 159.64361106 512.31905667 158.73910522 512.3190155 C157.86011521 512.31897462 156.9811252 512.31893374 156.07549913 512.31889162 C141.8197897 512.31848487 127.56410665 512.32806734 113.30840485 512.34215387 C98.62320823 512.35654896 83.93802446 512.36342246 69.25282061 512.36256009 C61.02701933 512.3622294 52.80124577 512.36492089 44.5754509 512.37573814 C37.57668966 512.38488412 30.57796873 512.38698466 23.57920407 512.38022872 C20.01651895 512.3769852 16.45391101 512.3768276 12.89123344 512.38558197 C-22.1783586 512.46636018 -22.1783586 512.46636018 -38.07730103 508.00871277 C-39.1069397 507.73607605 -39.1069397 507.73607605 -40.15737915 507.45793152 C-41.77931948 507.0269264 -43.3975783 506.58209484 -45.01480103 506.13371277 C-45.01480103 505.47371277 -45.01480103 504.81371277 -45.01480103 504.13371277 C-45.82304321 504.06410339 -46.6312854 503.99449402 -47.46401978 503.92277527 C-52.10129105 502.89227054 -55.7257357 500.85099679 -59.82730103 498.50871277 C-60.62249146 498.06011902 -61.41768188 497.61152527 -62.23696899 497.14933777 C-73.70250498 490.57209934 -73.70250498 490.57209934 -78.01480103 486.13371277 C-78.01480103 485.47371277 -78.01480103 484.81371277 -78.01480103 484.13371277 C-78.57167603 483.90683777 -79.12855103 483.67996277 -79.70230103 483.44621277 C-82.6763969 481.75821241 -84.73488968 479.6669476 -87.01480103 477.13371277 C-87.01480103 476.47371277 -87.01480103 475.81371277 -87.01480103 475.13371277 C-87.67480103 475.13371277 -88.33480103 475.13371277 -89.01480103 475.13371277 C-90.66515021 473.1704721 -92.16098367 471.22201075 -93.63980103 469.13371277 C-94.08203003 468.51157898 -94.52425903 467.88944519 -94.97988892 467.24845886 C-102.19840841 456.80514002 -108.97226956 444.32700976 -111.13980103 431.69621277 C-111.48088192 428.62004356 -111.48088192 428.62004356 -113.01480103 426.13371277 C-115.77929047 409.5682012 -115.30816683 392.37567632 -115.27625036 375.64811647 C-115.27164367 372.06050369 -115.27874935 368.47290868 -115.28421021 364.88529968 C-115.29301916 357.89195795 -115.29122087 350.89865958 -115.28538492 343.90531627 C-115.28083561 338.21429081 -115.28026951 332.52327736 -115.28243256 326.8322506 C-115.28273902 326.01685903 -115.28304549 325.20146747 -115.28336124 324.36136707 C-115.2840008 322.70404798 -115.28464923 321.04672889 -115.28530642 319.3894098 C-115.29098452 303.9158994 -115.28449108 288.44241285 -115.27370569 272.96890637 C-115.26476741 259.73631365 -115.26632942 246.50375603 -115.27554321 233.27116394 C-115.28628189 217.84172098 -115.29044073 202.41229881 -115.28431869 186.98285264 C-115.28368169 185.33314431 -115.28305295 183.68343598 -115.28243256 182.03372765 C-115.28196973 180.81671496 -115.28196973 180.81671496 -115.28149755 179.57511616 C-115.27978175 173.89957295 -115.28266135 168.22404311 -115.28739166 162.54850197 C-115.29304047 155.6198208 -115.29140075 148.69118487 -115.28083017 141.76250879 C-115.27562746 138.2379072 -115.27342267 134.71338061 -115.28012848 131.18877983 C-115.29774771 118.96793973 -115.30472154 106.79693752 -114.12362671 94.62313843 C-114.04615526 93.82256431 -113.96868382 93.02199019 -113.88886476 92.19715625 C-113.43931218 88.20056843 -112.67467806 84.79522489 -111.01480103 81.13371277 C-110.776438 79.70088616 -110.56901837 78.26263227 -110.38980103 76.82121277 C-108.91138424 68.97152366 -104.79376567 62.08308633 -101.01480103 55.13371277 C-100.50562134 54.18882996 -99.99644165 53.24394714 -99.47183228 52.27043152 C-95.69869977 45.64366939 -91.03619199 39.85556667 -86.01480103 34.13371277 C-85.36124634 33.38347839 -84.70769165 32.63324402 -84.03433228 31.86027527 C-74.4807813 21.62300788 -62.0513963 13.18079589 -49.01480103 8.13371277 C-47.92812134 7.64257996 -46.84144165 7.15144714 -45.72183228 6.64543152 C-41.84920479 4.98118343 -37.92669657 3.9550183 -33.82730103 3.00871277 C-33.14860962 2.83984558 -32.46991821 2.67097839 -31.7706604 2.49699402 C-21.3447164 0.04723474 -10.65838991 -0.01433799 0 0 Z " fill="#1F1F1F" transform="translate(115.01480102539063,-0.1337127685546875)"/>
<path d="M0 0 C6.73026316 1.12171053 6.73026316 1.12171053 10.375 3.0625 C23.43732321 9.92127341 36.67986421 16.1985729 50.1875 22.125 C53.26505358 23.48011685 56.34162281 24.83745669 59.41796875 26.1953125 C60.15538803 26.52027206 60.89280731 26.84523163 61.65257263 27.18003845 C67.18050944 29.62163757 72.66984962 32.13650913 78.14160156 34.7019043 C82.19001829 36.54042768 86.30648241 38.19156904 90.44140625 39.82421875 C95.05786473 41.94567524 95.05786473 41.94567524 97 44 C97.39119749 47.06145423 97.52256855 49.76358882 97.48101807 52.82670593 C97.48443577 53.73990138 97.48785347 54.65309683 97.49137473 55.59396487 C97.49798527 58.66671816 97.47592505 61.73860594 97.45410156 64.8112793 C97.45297377 67.00873799 97.4536056 69.20619819 97.45587158 71.40365601 C97.45702232 77.38069164 97.43345462 83.35740815 97.40557575 89.33436942 C97.38062207 95.57639699 97.37822486 101.81843135 97.37347412 108.0605011 C97.36244209 118.54111906 97.33743335 129.02163798 97.30175781 139.50219727 C97.26504818 150.2977642 97.23673132 161.09329927 97.21972656 171.88891602 C97.21815022 172.88688378 97.21815022 172.88688378 97.21654204 173.90501251 C97.21132193 177.2426483 97.2062761 180.58028431 97.20129442 183.91792047 C97.15944986 211.61202879 97.08906324 239.30600615 97 267 C91.55677135 268.77503019 86.11305045 270.54854022 80.66889954 272.32073975 C78.823086 272.92181949 76.9773996 273.5232898 75.1318512 274.12518311 C64.5096763 277.58910419 53.88143193 281.01298137 43.1875 284.25 C32.93807729 287.36299216 22.773354 290.69061332 12.62573242 294.12011719 C11.02048706 294.66200684 11.02048706 294.66200684 9.3828125 295.21484375 C8.43809082 295.53573975 7.49336914 295.85663574 6.52001953 296.18725586 C4.37313767 296.8796575 2.1884234 297.45289415 0 298 C0 199.66 0 101.32 0 0 Z " fill="#AD8550" transform="translate(163,104)"/>
<path d="M0 0 C45.54 0 91.08 0 138 0 C138 93.06 138 186.12 138 282 C140.31 282 142.62 282 145 282 C145 282.33 145 282.66 145 283 C102.43 283 59.86 283 16 283 C16 282.67 16 282.34 16 282 C69.36682935 279.10293475 69.36682935 279.10293475 92.8923645 277.94134521 C94.61739326 277.85611026 96.34238997 277.77022379 98.06735229 277.68365479 C100.45105418 277.56435425 102.83487137 277.44773948 105.21875 277.33203125 C105.89656021 277.29780563 106.57437042 277.26358002 107.27272034 277.22831726 C109.18117875 277.13767796 111.09062349 277.06863208 113 277 C113.67619385 276.97014008 114.3523877 276.94028015 115.04907227 276.90951538 C119.77462866 276.78287304 122.29879764 277.43293255 127 279 C126.67 190.89 126.34 102.78 126 12 C92.01 11.67 58.02 11.34 23 11 C1 2 1 2 0 0 Z " fill="#CDAA76" transform="translate(203,113)"/>
<path d="M0 0 C13.28187409 -0.02312079 26.56374343 -0.04091374 39.84563351 -0.05181217 C46.0122492 -0.05704158 52.17885118 -0.06414027 58.34545898 -0.07543945 C64.29116006 -0.08626629 70.23684789 -0.0922764 76.18255806 -0.09487724 C78.45646943 -0.09673186 80.73038004 -0.10035317 83.00428581 -0.10573006 C86.1772712 -0.11293778 89.35020117 -0.11399106 92.52319336 -0.11352539 C93.47337341 -0.11712067 94.42355347 -0.12071594 95.40252686 -0.12442017 C101.88594784 -0.11405216 101.88594784 -0.11405216 103 1 C103.09660712 2.42828618 103.12371834 3.86133631 103.12304783 5.29288578 C103.12503888 6.22494345 103.12702993 7.15700112 103.12908131 8.11730295 C103.12616847 9.15327331 103.12325563 10.18924366 103.12025452 11.25660706 C103.12110894 12.34776996 103.12196337 13.43893287 103.12284368 14.56316131 C103.1245017 18.24988748 103.11897187 21.93656898 103.11352539 25.62329102 C103.11324356 28.25394693 103.11340117 30.88460292 103.1139679 33.51525879 C103.11449332 39.19452446 103.11134461 44.87377867 103.10573006 50.55304146 C103.09761753 58.76439312 103.09500009 66.97573921 103.09374207 75.18709444 C103.09155116 88.50811493 103.08489002 101.82912931 103.07543945 115.15014648 C103.06626634 128.09350555 103.05918501 141.03686295 103.05493164 153.98022461 C103.05466892 154.77748971 103.05440619 155.5747548 103.05413551 156.39617945 C103.05283051 160.39565583 103.05156679 164.39513222 103.05032361 168.39460862 C103.03994978 201.59641019 103.02233041 234.79820428 103 268 C102.01 267.67 101.02 267.34 100 267 C100.66 267 101.32 267 102 267 C101.9922694 265.92651322 101.9922694 265.92651322 101.98438263 264.83133984 C101.816359 241.45010411 101.65545965 218.06882258 101.5 194.6875 C101.49405146 193.79410132 101.48810292 192.90070265 101.48197412 191.98023129 C101.06086919 128.65068517 100.9092668 65.33177016 101 2 C68 2 35 2 1 2 C0.67 1.34 0.34 0.68 0 0 Z " fill="#4F422E" transform="translate(227,124)"/>
<path d="M0 0 C0 0.99 0 1.98 0 3 C-26.73053859 3.86028268 -53.4454242 4.09174629 -80.1875 4.0625 C-80.9757806 4.06164398 -81.7640612 4.06078796 -82.5762291 4.05990601 C-92.38417628 4.04846826 -102.1920866 4.02832374 -112 4 C-112 3.67 -112 3.34 -112 3 C-58.63317065 0.10293475 -58.63317065 0.10293475 -35.1076355 -1.05865479 C-33.38260674 -1.14388974 -31.65761003 -1.22977621 -29.93264771 -1.31634521 C-27.54894582 -1.43564575 -25.16512863 -1.55226052 -22.78125 -1.66796875 C-22.10343979 -1.70219437 -21.42562958 -1.73641998 -20.72727966 -1.77168274 C-13.42229619 -2.11862172 -6.97730183 -2.32576728 0 0 Z " fill="#A08054" transform="translate(331,392)"/>
<path d="M0 0 C1.21713684 -0.00137466 2.43427368 -0.00274933 3.68829346 -0.00416565 C5.03387476 -0.00062677 6.37945581 0.00300803 7.72503662 0.00672913 C9.14432778 0.00701125 10.56361908 0.00685277 11.98291016 0.00628662 C15.83380293 0.00599963 19.68466458 0.01188053 23.53555012 0.01886058 C27.56076716 0.02511043 31.58598491 0.02569921 35.61120605 0.02688599 C43.23259589 0.02999448 50.85397139 0.0382014 58.47535491 0.04823548 C67.15242692 0.05941154 75.8294996 0.06491083 84.50657701 0.06993091 C102.35512116 0.0803844 120.20365196 0.09797454 138.05218506 0.12025452 C138.05218506 1.11025452 138.05218506 2.10025452 138.05218506 3.12025452 C89.54218506 3.12025452 41.03218506 3.12025452 -8.94781494 3.12025452 C-9.27781494 2.46025452 -9.60781494 1.80025452 -9.94781494 1.12025452 C-6.57788569 0.10098551 -3.51229886 -0.00305949 0 0 Z " fill="#4B3A26" transform="translate(215.94781494140625,394.87974548339844)"/>
<path d="M0 0 C29.37 0 58.74 0 89 0 C89 31.35 89 62.7 89 95 C88.67 95 88.34 95 88 95 C87.15376516 87.54690344 86.69466905 80.12039539 86.4375 72.625 C86.3950415 71.39507324 86.35258301 70.16514648 86.30883789 68.89794922 C85.62967397 46.94548952 85.91662001 24.95975601 86 3 C80.96414363 2.1814365 76.05778048 1.83585019 70.95336914 1.79467773 C70.18181488 1.78477814 69.41026062 1.77487854 68.61532593 1.76467896 C66.08863292 1.73332573 63.56192117 1.70841114 61.03515625 1.68359375 C59.27395668 1.66300156 57.51276179 1.64200452 55.75157166 1.62062073 C51.13373634 1.56563388 46.51585817 1.51612223 41.89794922 1.46777344 C37.1786725 1.41738681 32.45945741 1.36179064 27.74023438 1.30664062 C18.49354234 1.19934545 9.2467966 1.09783781 0 1 C0 0.67 0 0.34 0 0 Z " fill="#D7C199" transform="translate(252,113)"/>
<path d="M0 0 C4.68906774 0.78151129 7.2223895 1.33648548 11.25 3.375 C12.10078125 3.79523438 12.9515625 4.21546875 13.828125 4.6484375 C16 6 16 6 18 9 C13.79917309 8.32244727 9.9683673 6.98168752 5.98828125 5.5234375 C3.94609626 4.75187385 3.94609626 4.75187385 2 6 C2.17361557 6.52682373 2.34723114 7.05364746 2.52610779 7.59643555 C3.13338641 10.67653116 2.85195947 13.32431554 2.58227539 16.45703125 C1.68712943 28.50618267 1.77132347 40.58555971 1.69667697 52.66151047 C1.67451031 56.09410727 1.64727465 59.52666415 1.62062073 62.95922852 C1.57110172 69.43271244 1.52601511 75.90621902 1.48259836 82.37974644 C1.43287273 89.76089826 1.37808795 97.14200996 1.32291877 104.52312279 C1.20972661 119.68204433 1.10275589 134.84100385 1 150 C0.67 150 0.34 150 0 150 C0 100.5 0 51 0 0 Z " fill="#C2A47A" transform="translate(163,104)"/>
<path d="M0 0 C0.33 0 0.66 0 1 0 C1.98994534 22.70555492 2.08910724 45.40242007 2.0625 68.125 C2.06121597 69.22929352 2.06121597 69.22929352 2.05990601 70.355896 C2.04840561 79.57062102 2.02817342 88.78530985 2 98 C4.31 98 6.62 98 9 98 C9 98.33 9 98.66 9 99 C-10.8 99 -30.6 99 -51 99 C-51 98.67 -51 98.34 -51 98 C-34.83 98 -18.66 98 -2 98 C-1.1505506 91.53638618 -1.1505506 91.53638618 -0.91992188 85.18164062 C-0.92576294 84.30310425 -0.931604 83.42456787 -0.93762207 82.51940918 C-0.94789429 81.57456665 -0.9581665 80.62972412 -0.96875 79.65625 C-1.02258902 69.50779412 -0.93923149 59.36566305 -0.78125 49.21875 C-0.77017212 48.49761017 -0.75909424 47.77647034 -0.74768066 47.03347778 C-0.67939535 42.60793597 -0.60837054 38.18244186 -0.53643799 33.75695801 C-0.47472296 29.93434803 -0.41520411 26.11170383 -0.35546875 22.2890625 C-0.23905869 14.859341 -0.1203262 7.42965923 0 0 Z " fill="#AF916B" transform="translate(339,297)"/>
<path d="M0 0 C5.32908684 0.54657301 10.68666994 1.71002864 15 5 C16.61801531 8.24111872 17.40852423 11.43754824 18 15 C10.87303484 12.78157548 4.20419332 9.95177996 -2.5625 6.8125 C-3.57119141 6.34908203 -4.57988281 5.88566406 -5.61914062 5.40820312 C-8.0813725 4.27627662 -10.54156694 3.1401475 -13 2 C-9.90226756 1.15937603 -7.21667249 0.91064799 -4 1 C-4 1.99 -4 2.98 -4 4 C-2.35 3.67 -0.7 3.34 1 3 C0.67 2.01 0.34 1.02 0 0 Z " fill="#29261F" transform="translate(206,116)"/>
<path d="M0 0 C4.89815781 1.28210992 9.23287131 2.91485372 13.8125 5.125 C20.45767447 8.30231431 27.16441491 11.31399699 33.92114258 14.24658203 C41.62781126 17.62747195 41.62781126 17.62747195 45 20 C45 20.66 45 21.32 45 22 C40.62880299 20.6024064 36.3142131 19.19630032 32.125 17.3125 C29.10391507 15.80638376 29.10391507 15.80638376 26 16 C25.01 15.34 24.02 14.68 23 14 C23 13.34 23 12.68 23 12 C22.34773438 11.81824219 21.69546875 11.63648438 21.0234375 11.44921875 C16.07269989 10.02533404 11.53453577 8.50592766 7 6 C6.67 6.66 6.34 7.32 6 8 C6 6.68 6 5.36 6 4 C5.195625 3.71125 4.39125 3.4225 3.5625 3.125 C1 2 1 2 0 0 Z " fill="#BDA379" transform="translate(200,121)"/>
<path d="M0 0 C-6.85422697 3.1342905 -12.6812391 3.39855867 -20.15625 3.29296875 C-21.29912476 3.28872391 -22.44199951 3.28447906 -23.61950684 3.28010559 C-27.24658409 3.26339974 -30.8730925 3.22576156 -34.5 3.1875 C-36.96874194 3.17244275 -39.43749264 3.15875617 -41.90625 3.14648438 C-47.93769196 3.11352271 -53.96880532 3.06340403 -60 3 C-60 2.67 -60 2.34 -60 2 C-52.76798371 1.58441824 -45.53562748 1.17540262 -38.30276871 0.77473354 C-34.94416668 0.58847531 -31.58572247 0.39996946 -28.22753906 0.20629883 C-24.36552966 -0.01530356 -20.50315636 -0.22912139 -16.640625 -0.44140625 C-15.4363385 -0.51218887 -14.232052 -0.5829715 -12.99127197 -0.65589905 C-11.87041199 -0.71603683 -10.749552 -0.77617462 -9.59472656 -0.83813477 C-8.11579926 -0.9214077 -8.11579926 -0.9214077 -6.60699463 -1.00636292 C-4.19424419 -1.00047409 -2.29373743 -0.70899382 0 0 Z " fill="#856C4D" transform="translate(279,393)"/>
<path d="M0 0 C6.75 1.875 6.75 1.875 9 3 C9 27.09 9 51.18 9 76 C8.67 76 8.34 76 8 76 C6.94078912 60.43186888 6.88158949 44.9115333 6.9375 29.3125 C6.94252931 26.84570404 6.94708967 24.37890708 6.95117188 21.91210938 C6.96205423 15.94138392 6.97867695 9.97069683 7 4 C6.030625 3.71125 5.06125 3.4225 4.0625 3.125 C1 2 1 2 0 0 Z " fill="#C2A77C" transform="translate(251,145)"/>
<path d="M0 0 C1.14404987 4.09680565 1.12609467 8.04053531 1.09765625 12.265625 C1.0962413 13.05902283 1.09482635 13.85242065 1.09336853 14.66986084 C1.08778415 17.19661272 1.07523454 19.72327504 1.0625 22.25 C1.05748298 23.96614455 1.05292043 25.68229049 1.04882812 27.3984375 C1.03781984 31.59899269 1.02056596 35.79948117 1 40 C1.99 39.505 1.99 39.505 3 39 C4.99960012 38.960008 7.00047242 38.95653201 9 39 C6.7448078 41.2551922 4.9952413 41.97723468 2 43 C1.01 43 0.02 43 -1 43 C-1.02464574 37.03686834 -1.042834 31.07376605 -1.05493164 25.1105957 C-1.05997278 23.08031702 -1.06680557 21.05004198 -1.07543945 19.01977539 C-1.08751467 16.10822653 -1.09323034 13.1967255 -1.09765625 10.28515625 C-1.10281754 9.3716188 -1.10797882 8.45808136 -1.11329651 7.51686096 C-1.11349168 5.34424573 -1.06211805 3.17172704 -1 1 C-0.67 0.67 -0.34 0.34 0 0 Z " fill="#977953" transform="translate(164,359)"/>
<path d="M0 0 C5.16791372 2.71347851 9.08014104 5.62497455 13.125 9.8125 C13.64416992 10.34004883 14.16333984 10.86759766 14.69824219 11.41113281 C18.21286669 15.03690926 21.28284545 18.73018571 24 23 C23.34 23.33 22.68 23.66 22 24 C22 23.34 22 22.68 22 22 C21.01 21.67 20.02 21.34 19 21 C17.421875 19.3984375 17.421875 19.3984375 15.75 17.375 C11.57294632 12.45457236 7.39388058 7.59592039 2 4 C2 3.34 2 2.68 2 2 C1.34 2 0.68 2 0 2 C0 1.34 0 0.68 0 0 Z " fill="#6A6A6A" transform="translate(467,21)"/>
<path d="M0 0 C-2.58044377 2.58044377 -4.84008718 3.06669416 -8.3203125 4.1640625 C-10.20556641 4.76347656 -10.20556641 4.76347656 -12.12890625 5.375 C-13.46089588 5.79179971 -14.79292768 6.20846464 -16.125 6.625 C-17.46502254 7.0489144 -18.80486867 7.47338689 -20.14453125 7.8984375 C-23.4279899 8.93780571 -26.7131555 9.97139911 -30 11 C-30.33 10.34 -30.66 9.68 -31 9 C-30.11957031 8.66226562 -29.23914063 8.32453125 -28.33203125 7.9765625 C-27.17058594 7.53054688 -26.00914062 7.08453125 -24.8125 6.625 C-23.08966797 5.96371094 -23.08966797 5.96371094 -21.33203125 5.2890625 C-19.29505052 4.50101603 -17.2634953 3.69851295 -15.2421875 2.87109375 C-12.84627913 1.94027918 -10.52052351 1.4768558 -8 1 C-5.29120665 -0.35439668 -2.99066732 -0.06501451 0 0 Z " fill="#856845" transform="translate(256,371)"/>
<path d="M0 0 C3.75117548 0.60611453 6.79106712 1.67935272 10.1875 3.375 C11.04730469 3.79523438 11.90710938 4.21546875 12.79296875 4.6484375 C15 6 15 6 17 9 C12.84732788 8.33021417 9.03338678 7.02897242 5.0859375 5.62109375 C2.88353155 4.85731432 2.88353155 4.85731432 0 5 C0 3.35 0 1.7 0 0 Z " fill="#B69D73" transform="translate(164,104)"/>
<path d="M0 0 C0.66 0 1.32 0 2 0 C2 10.56 2 21.12 2 32 C1.01 32 0.02 32 -1 32 C-0.83628906 30.9378125 -0.67257812 29.875625 -0.50390625 28.78125 C0.2151081 23.0291352 0.10749889 17.28754902 0.0625 11.5 C0.05798828 10.39140625 0.05347656 9.2828125 0.04882812 8.140625 C0.03713158 5.42702601 0.02074086 2.71354239 0 0 Z " fill="#AC8A5F" transform="translate(338,363)"/>
<path d="M0 0 C-4.7783003 4.36279592 -11.18905148 6.1875 -17.5625 6.1875 C-18.696875 6.125625 -19.83125 6.06375 -21 6 C-17.49451638 3.66301092 -13.9190119 2.54814162 -9.9375 1.3125 C-8.83825195 0.95575195 -8.83825195 0.95575195 -7.71679688 0.59179688 C-2.24388587 -1.12194293 -2.24388587 -1.12194293 0 0 Z " fill="#342619" transform="translate(215,386)"/>
<path d="M0 0 C0.99 0.99 1.98 1.98 3 3 C-3.93 4.98 -10.86 6.96 -18 9 C-18.33 8.34 -18.66 7.68 -19 7 C-13.87674471 4.54510684 -9.66104589 3.49658297 -4 3 C-4 2.34 -4 1.68 -4 1 C-2.68 1.33 -1.36 1.66 0 2 C0 1.34 0 0.68 0 0 Z " fill="#876A42" transform="translate(221,380)"/>
<path d="M0 0 C0 3 0 3 -2.1875 5.48046875 C-3.115625 6.37378906 -4.04375 7.26710938 -5 8.1875 C-5.928125 9.08855469 -6.85625 9.98960937 -7.8125 10.91796875 C-8.534375 11.60503906 -9.25625 12.29210937 -10 13 C-10.66 12.67 -11.32 12.34 -12 12 C-8.32167983 7.47384007 -4.58913637 3.60575001 0 0 Z " fill="#4B4B4B" transform="translate(485,473)"/>
<path d="M0 0 C-1.86691174 1.01501998 -3.74395344 2.01142079 -5.625 3 C-6.66914063 3.556875 -7.71328125 4.11375 -8.7890625 4.6875 C-12.14146595 6.0578255 -14.41954936 6.2580505 -18 6 C-16.58389106 3.16778212 -14.54800684 2.96408426 -11.67773438 1.99804688 C-10.97970703 1.77181641 -10.28167969 1.54558594 -9.5625 1.3125 C-8.52125977 0.95575195 -8.52125977 0.95575195 -7.45898438 0.59179688 C-2.25327988 -1.12663994 -2.25327988 -1.12663994 0 0 Z " fill="#412E1D" transform="translate(184,396)"/>
<path d="M0 0 C0.33 0.66 0.66 1.32 1 2 C0.34 2 -0.32 2 -1 2 C-1.226875 2.639375 -1.45375 3.27875 -1.6875 3.9375 C-3 6 -3 6 -5.625 6.75 C-6.800625 6.87375 -6.800625 6.87375 -8 7 C-8.33 7.99 -8.66 8.98 -9 10 C-9.66 10 -10.32 10 -11 10 C-9.54144353 6.31353859 -7.69770955 4.83856029 -4.375 2.75 C-3.55773438 2.22921875 -2.74046875 1.7084375 -1.8984375 1.171875 C-1.27195312 0.78515625 -0.64546875 0.3984375 0 0 Z " fill="#757575" transform="translate(51,16)"/>
<path d="M0 0 C2.97 0 5.94 0 9 0 C9 0.66 9 1.32 9 2 C4.05 3.485 4.05 3.485 -1 5 C-1 2 -1 2 0 0 Z " fill="#8C6D44" transform="translate(192,388)"/>
<path d="M0 0 C-10.37357631 4.40774487 -10.37357631 4.40774487 -16 5 C-15.67 4.01 -15.34 3.02 -15 2 C-13.7315625 1.814375 -13.7315625 1.814375 -12.4375 1.625 C-8.91575726 1.05059919 -8.91575726 1.05059919 -5.25 -0.125 C-2 -1 -2 -1 0 0 Z " fill="#8C6E45" transform="translate(189,393)"/>
<path d="M0 0 C2.97 0 5.94 0 9 0 C9 0.99 9 1.98 9 3 C9.66 3 10.32 3 11 3 C11 3.66 11 4.32 11 5 C9.53932801 4.54917531 8.08151968 4.08906463 6.625 3.625 C5.81289062 3.36976562 5.00078125 3.11453125 4.1640625 2.8515625 C2 2 2 2 0 0 Z " fill="#3E3425" transform="translate(193,117)"/>
<path d="M0 0 C0.33 0.99 0.66 1.98 1 3 C0.01 3.33 -0.98 3.66 -2 4 C-2.309375 4.969375 -2.61875 5.93875 -2.9375 6.9375 C-4 10 -4 10 -6.125 11.375 C-6.74375 11.58125 -7.3625 11.7875 -8 12 C-6.49087042 7.01987239 -3.44338151 3.75740058 0 0 Z " fill="#919191" transform="translate(25,39)"/>
<path d="M0 0 C1.46067199 0.45082469 2.91848032 0.91093537 4.375 1.375 C5.18710938 1.63023437 5.99921875 1.88546875 6.8359375 2.1484375 C9 3 9 3 11 5 C3.57142857 5.28571429 3.57142857 5.28571429 0 3 C0 2.01 0 1.02 0 0 Z " fill="#A28E6D" transform="translate(245,141)"/>
<path d="M0 0 C4.75 0.75 4.75 0.75 7 3 C4.35261084 4.4606285 3.10551666 5 0 5 C0 3.35 0 1.7 0 0 Z " fill="#AD9567" transform="translate(164,104)"/>
<path d="M0 0 C0.33 1.32 0.66 2.64 1 4 C1.66 3.67 2.32 3.34 3 3 C4.99960012 2.960008 7.00047242 2.95653201 9 3 C6.3144406 5.6855594 3.62378672 6.06049974 0 7 C0 4.69 0 2.38 0 0 Z " fill="#84693F" transform="translate(164,395)"/>
<path d="M0 0 C0 0.66 0 1.32 0 2 C-7.42857143 2.28571429 -7.42857143 2.28571429 -11 0 C-6.94952424 -1.35015859 -4.2079832 -0.62084998 0 0 Z " fill="#967952" transform="translate(287,393)"/>
<path d="M0 0 C4.77576339 0.4682121 8.04476345 1.24331998 12 4 C11.67 4.66 11.34 5.32 11 6 C7.37 4.35 3.74 2.7 0 1 C0 0.67 0 0.34 0 0 Z " fill="#3B3223" transform="translate(229,133)"/>
<path d="M0 0 C2.97 0 5.94 0 9 0 C9.33 1.32 9.66 2.64 10 4 C6.7 3.01 3.4 2.02 0 1 C0 0.67 0 0.34 0 0 Z " fill="#AB9065" transform="translate(204,114)"/>
<path d="M0 0 C-0.66 0.66 -1.32 1.32 -2 2 C-2.99 2 -3.98 2 -5 2 C-5 2.66 -5 3.32 -5 4 C-6.98 4 -8.96 4 -11 4 C-7.64191281 0.32209498 -4.88401581 -0.13200043 0 0 Z " fill="#737373" transform="translate(78,5)"/>
<path d="M0 0 C-3.83325617 2.70582788 -6.32538149 3.32613618 -11 3 C-10 1 -10 1 -6.625 -0.1875 C-3 -1 -3 -1 0 0 Z " fill="#271C10" transform="translate(242,378)"/>
<path d="M0 0 C3.37462715 0.54723683 5.08235 1.0549 8 3 C7.34 4.32 6.68 5.64 6 7 C5.67 5.68 5.34 4.36 5 3 C4.360625 2.87625 3.72125 2.7525 3.0625 2.625 C2.381875 2.41875 1.70125 2.2125 1 2 C0.67 1.34 0.34 0.68 0 0 Z " fill="#BFA378" transform="translate(182,113)"/>
<path d="M0 0 C3.4375 0.8125 3.4375 0.8125 7 2 C7.33 2.99 7.66 3.98 8 5 C5.125 4.75 5.125 4.75 2 4 C0.625 1.9375 0.625 1.9375 0 0 Z " fill="#BDA279" transform="translate(191,117)"/>
</svg>
